<svg width="40" height="40" viewBox="0 0 40 40" fill="none" xmlns="http://www.w3.org/2000/svg">
<path d="M10.5469 7.10938H29.4531C30.0993 7.10938 30.625 7.63508 30.625 8.28125C30.625 8.92742 30.0993 9.45312 29.4531 9.45312H22.3438C20.4052 9.45312 18.8281 11.0302 18.8281 12.9688V14.1406H21.1719V12.9688C21.1719 12.3226 21.6976 11.7969 22.3438 11.7969H29.4531C31.3916 11.7969 32.9688 10.2198 32.9688 8.28125C32.9688 6.34273 31.3916 4.76562 29.4531 4.76562H10.5469C9.9007 4.76562 9.375 4.23992 9.375 3.59375V2.42188H7.03125V3.59375C7.03125 5.53227 8.60836 7.10938 10.5469 7.10938Z" fill="#2563EB"/>
<path d="M31.6168 28.2031H35.3125C37.8972 28.2031 40 26.1003 40 23.5156C40 20.9309 37.8972 18.8281 35.3125 18.8281H32.9688V16.4844H7.03125V22.4219C7.03125 25.427 8.04828 28.2684 9.88672 30.5469H0V32.8906H5.13516L7.47891 37.5781H32.5212L34.8649 32.8906H40V30.5469H30.1133C30.7007 29.8189 31.2035 29.033 31.6168 28.2031ZM35.3125 21.1719C36.6048 21.1719 37.6562 22.2233 37.6562 23.5156C37.6562 24.808 36.6048 25.8594 35.3125 25.8594H32.5097C32.811 24.7547 32.9688 23.6011 32.9688 22.4219V21.1719H35.3125ZM9.375 22.4219V18.8281H30.625V22.4219C30.625 25.5814 29.2521 28.5202 26.8455 30.5469H13.1545C10.7479 28.5202 9.375 25.5814 9.375 22.4219ZM31.0726 35.2344H8.92742L7.75555 32.8906H32.2445L31.0726 35.2344Z" fill="#2563EB"/>
</svg>
