<svg width="40" height="32" viewBox="0 0 40 32" fill="none" xmlns="http://www.w3.org/2000/svg">
<path d="M37.5216 0.884888H12.2324C10.8657 0.884888 9.75385 1.99669 9.75385 3.36341V5.56904L7.35705 3.17216L3.29649 7.23271L5.13962 9.07584L0 17.1489L5.21907 25.3067H3.24837C1.71875 25.3067 0.474376 26.551 0.474376 28.0806V31.115H14.3029V28.0806C14.3029 26.551 13.0585 25.3067 11.5289 25.3067H8.03877L2.81766 17.1458L6.26118 11.7368C6.1454 13.4189 6.72736 15.1405 8.01041 16.4235L8.99603 17.4092L9.75385 16.6514V21.9334C9.75385 23.3 10.8656 24.4118 12.2324 24.4118H19.3209L18.9021 28.74H16.9418V31.1152H18.6722H31.0815H32.8119V28.74H30.8517L30.4329 24.4118H37.5214C38.888 24.4118 39.9999 23.3 39.9999 21.9334V3.36349C40.0001 1.99676 38.8882 0.884888 37.5216 0.884888ZM11.5289 27.6818C11.7488 27.6818 11.9277 27.8607 11.9277 28.0806V28.7399H2.84954V28.0806C2.84954 27.8607 3.02844 27.6818 3.24837 27.6818H11.5289ZM8.28119 7.63303C8.25955 7.65217 8.23775 7.67092 8.21634 7.69045C8.14775 7.75295 8.08017 7.8167 8.01423 7.88264C8.01298 7.88389 8.01173 7.88498 8.01041 7.88623C8.00908 7.88748 8.00806 7.88873 8.00681 7.89006C7.94103 7.956 7.87728 8.0235 7.81486 8.09201C7.79509 8.11373 7.77595 8.13584 7.75658 8.15779C7.729 8.18889 7.7008 8.21951 7.67392 8.25123L6.65556 7.23287L7.35705 6.53131L8.37541 7.54967C8.34345 7.5767 8.31252 7.60513 8.28119 7.63303ZM9.09103 13.9556C8.50134 12.912 8.4647 11.6387 8.97986 10.5662C8.98345 10.5588 8.98705 10.5514 8.99064 10.544C9.00869 10.5071 9.02744 10.4704 9.04681 10.4338C9.05197 10.424 9.05736 10.4144 9.06267 10.4048C9.08135 10.3703 9.10049 10.336 9.12049 10.3022C9.12713 10.2908 9.134 10.2797 9.1408 10.2683C9.1601 10.2362 9.17978 10.204 9.20017 10.1724C9.20846 10.1596 9.21713 10.1469 9.22556 10.1342C9.24525 10.1044 9.26517 10.0746 9.28588 10.0453C9.29642 10.0305 9.30752 10.0158 9.31822 10.0011C9.33775 9.9742 9.35728 9.94741 9.3776 9.92092C9.3915 9.90287 9.40611 9.8853 9.42041 9.86748C9.43861 9.84475 9.4565 9.82186 9.47533 9.79951C9.49517 9.77584 9.51596 9.75287 9.5365 9.72967C9.5508 9.7135 9.56471 9.69701 9.57932 9.68108C9.61525 9.64186 9.65205 9.60342 9.68986 9.56561C9.73197 9.5235 9.77502 9.4828 9.81877 9.44311C9.83135 9.43162 9.84432 9.42076 9.85705 9.40944C9.88892 9.38123 9.92111 9.35326 9.95377 9.32647C9.96783 9.31483 9.98228 9.30365 9.9965 9.29225C10.0292 9.26623 10.062 9.24053 10.0953 9.21576C10.1088 9.20561 10.1226 9.19576 10.1363 9.18584C10.1719 9.16014 10.2078 9.13506 10.2441 9.11076C10.2557 9.10295 10.2674 9.09514 10.2792 9.08748C10.3198 9.061 10.3609 9.03537 10.4023 9.01061C10.41 9.00592 10.4178 9.00115 10.4255 8.99662C10.7314 8.81717 11.0579 8.68592 11.3941 8.60272C11.3995 8.60139 11.4049 8.5999 11.4103 8.5985C11.4631 8.58568 11.5162 8.5742 11.5695 8.56373C11.5739 8.56287 11.5783 8.56186 11.5828 8.56092C11.6372 8.55045 11.6917 8.54139 11.7465 8.53334C11.7497 8.53287 11.7529 8.53232 11.7561 8.53186C11.8114 8.52397 11.8671 8.51732 11.9226 8.51193C11.9253 8.5117 11.9281 8.51139 11.9308 8.51108C11.9862 8.50584 12.0417 8.50186 12.0972 8.4992C12.1006 8.49904 12.1039 8.49881 12.1074 8.49865C12.1614 8.49615 12.2156 8.4949 12.2697 8.49475C12.2747 8.49475 12.2797 8.49467 12.2848 8.49467C12.4378 8.4949 12.5906 8.50459 12.7426 8.52373C12.746 8.52412 12.7492 8.52475 12.7526 8.52514C12.8186 8.53365 12.8844 8.54451 12.9499 8.55662C12.9692 8.56022 12.9884 8.56404 13.0076 8.56795C13.0583 8.57818 13.1087 8.58975 13.159 8.60209C13.1813 8.60764 13.2037 8.61272 13.2258 8.61865C13.2855 8.63459 13.3449 8.65209 13.4039 8.671C13.4348 8.681 13.4653 8.69201 13.496 8.70279C13.5349 8.71639 13.5735 8.73022 13.612 8.74514C13.6454 8.75818 13.6785 8.77209 13.7117 8.78608C13.7424 8.79912 13.773 8.81272 13.8035 8.82654C13.8375 8.84209 13.8715 8.85756 13.9049 8.8742C13.937 8.89006 13.9686 8.90709 14.0003 8.92389C14.0269 8.93803 14.0538 8.95154 14.08 8.96631L11.5857 11.4606L9.09103 13.9556ZM21.2884 28.7399L21.7072 24.4117H28.0469L28.4656 28.7399H21.2884ZM37.6249 21.9333C37.6249 21.9902 37.5785 22.0366 37.5216 22.0366H30.2033H19.5507H12.2324C12.1753 22.0366 12.129 21.9903 12.129 21.9333V19.7216H37.625V21.9333H37.6249ZM37.6249 17.3465H12.129V14.2762L17.5334 8.87178L16.5477 7.88615C15.9479 7.28638 15.252 6.84029 14.5093 6.54615C14.5029 6.54365 14.4964 6.54138 14.4899 6.53888C14.4057 6.50576 14.3207 6.47435 14.2353 6.44521C14.2103 6.4367 14.1848 6.42912 14.1597 6.42091C14.0933 6.3992 14.0268 6.37795 13.9597 6.35857C13.917 6.34623 13.8739 6.33529 13.8309 6.32388C13.7817 6.31091 13.7324 6.29755 13.683 6.28584C13.6245 6.27185 13.5657 6.25966 13.5067 6.24732C13.4728 6.24037 13.4392 6.23295 13.4052 6.22654C13.3335 6.21295 13.2614 6.20123 13.189 6.19013C13.168 6.18693 13.1472 6.18349 13.1262 6.18052C13.0439 6.1688 12.9614 6.15912 12.8785 6.15091C12.8676 6.14982 12.8567 6.14865 12.8459 6.14755C12.7557 6.13904 12.6653 6.13263 12.5746 6.12818C12.5711 6.12802 12.5677 6.12779 12.5642 6.12763C12.4193 6.12076 12.2742 6.11709 12.1287 6.12068V3.36349C12.1287 3.30645 12.1751 3.26013 12.2321 3.26013H37.5213C37.5784 3.26013 37.6247 3.30653 37.6247 3.36349V17.3465H37.6249Z" fill="#2563EB"/>
</svg>
