<svg xmlns="http://www.w3.org/2000/svg" xmlns:xlink="http://www.w3.org/1999/xlink" width="401" zoomAndPan="magnify" viewBox="0 0 300.75 71.249999" height="95" preserveAspectRatio="xMidYMid meet" version="1.0"><defs><g/><clipPath id="031360fb2c"><path d="M 1.476562 12.554688 L 56.441406 12.554688 L 56.441406 45.238281 L 1.476562 45.238281 Z M 1.476562 12.554688 " clip-rule="nonzero"/></clipPath></defs><g clip-path="url(#031360fb2c)"><path fill="#bf8d1e" d="M 35.484375 41.1875 C 33.980469 42.15625 31.828125 41.488281 31.828125 41.488281 C 31.828125 41.488281 32.121094 39.25 33.625 38.28125 C 35.132812 37.3125 37.28125 37.980469 37.28125 37.980469 C 37.28125 37.980469 36.988281 40.21875 35.484375 41.1875 Z M 28.953125 41.890625 C 28.953125 41.890625 26.34375 39.679688 26.34375 36.957031 C 26.34375 34.234375 28.953125 32.027344 28.953125 32.027344 C 28.953125 32.027344 31.566406 34.234375 31.566406 36.957031 C 31.566406 39.679688 28.953125 41.890625 28.953125 41.890625 Z M 22.421875 41.1875 C 20.917969 40.21875 20.625 37.980469 20.625 37.980469 C 20.625 37.980469 22.777344 37.3125 24.28125 38.28125 C 25.785156 39.25 26.078125 41.488281 26.078125 41.488281 C 26.078125 41.488281 23.929688 42.15625 22.421875 41.1875 Z M 53.832031 25.015625 L 53.6875 27.289062 C 51.046875 29.261719 43.347656 34.65625 39.46875 33.613281 C 36.671875 32.859375 31.964844 27.054688 29.214844 17.683594 L 30.765625 15.332031 L 28.953125 12.585938 L 27.144531 15.332031 L 28.691406 17.683594 C 25.941406 27.054688 21.234375 32.859375 18.4375 33.613281 C 14.558594 34.65625 6.863281 29.261719 4.222656 27.289062 L 4.074219 25.015625 L 1.472656 23.871094 L 1.65625 26.714844 L 3.8125 27.667969 C 6.390625 33.074219 8.832031 37.039062 10.792969 39.820312 C 13.171875 43.195312 17.035156 45.203125 21.15625 45.203125 L 36.753906 45.203125 C 40.871094 45.203125 44.734375 43.195312 47.117188 39.820312 C 49.078125 37.039062 51.519531 33.074219 54.09375 27.667969 L 56.25 26.714844 L 56.433594 23.871094 Z M 39.65625 32.917969 C 39.851562 32.972656 40.082031 33 40.335938 33 C 41.226562 33 42.320312 32.699219 43.515625 32.203125 L 42.574219 21.609375 L 44.101562 20.230469 L 43.4375 17.664062 L 41.476562 19.4375 L 41.996094 21.449219 L 36.566406 30.59375 C 37.757812 31.917969 38.84375 32.703125 39.65625 32.917969 Z M 14.390625 32.203125 C 15.585938 32.699219 16.679688 33 17.570312 33 C 17.824219 33 18.054688 32.972656 18.253906 32.917969 C 19.0625 32.703125 20.152344 31.917969 21.339844 30.59375 L 15.910156 21.449219 L 16.433594 19.4375 L 14.46875 17.664062 L 13.808594 20.230469 L 15.335938 21.609375 L 14.390625 32.203125 " fill-opacity="1" fill-rule="nonzero"/></g><g fill="#000000" fill-opacity="1"><g transform="translate(65.216544, 43.994155)"><g><path d="M 1.5 0 L 1.5 -2.03125 L 4.5 -2.03125 L 4.5 -19.625 L 1.5 -19.625 L 1.5 -21.65625 L 10.65625 -21.65625 L 10.65625 -19.625 L 7.65625 -19.625 L 7.65625 -11.34375 L 16.578125 -19.625 L 14.125 -19.625 L 14.125 -21.65625 L 23.078125 -21.65625 L 23.078125 -19.625 L 20.234375 -19.625 L 10.84375 -10.921875 L 20.390625 -2.03125 L 23.28125 -2.03125 L 23.28125 0 L 14 0 L 14 -2.03125 L 16.546875 -2.03125 L 7.65625 -10.265625 L 7.65625 -2.03125 L 10.65625 -2.03125 L 10.65625 0 Z M 1.5 0 "/></g></g></g><g fill="#000000" fill-opacity="1"><g transform="translate(89.408076, 43.994155)"><g><path d="M 1.921875 0 L 1.921875 -2.03125 L 4.921875 -2.03125 L 4.921875 -19.625 L 1.921875 -19.625 L 1.921875 -21.65625 L 11.125 -21.65625 L 11.125 -19.625 L 8.078125 -19.625 L 8.078125 -2.03125 L 11.125 -2.03125 L 11.125 0 Z M 1.921875 0 "/></g></g></g><g fill="#000000" fill-opacity="1"><g transform="translate(102.292271, 43.994155)"><g><path d="M 1.578125 0 L 1.578125 -2.03125 L 4.65625 -2.03125 L 4.65625 -19.625 L 1.578125 -19.625 L 1.578125 -21.65625 L 8.265625 -21.65625 L 20.65625 -4.15625 L 20.65625 -19.625 L 17.578125 -19.625 L 17.578125 -21.65625 L 26.078125 -21.65625 L 26.078125 -19.625 L 23.078125 -19.625 L 23.078125 0 L 19.96875 0 L 7.046875 -18.421875 L 7.046875 -2.03125 L 10.125 -2.03125 L 10.125 0 Z M 1.578125 0 "/></g></g></g><g fill="#000000" fill-opacity="1"><g transform="translate(129.214482, 43.994155)"><g><path d="M 24.578125 -10.921875 L 24.578125 -9.765625 C 24.578125 -6.640625 23.628906 -4.164062 21.734375 -2.34375 C 19.835938 -0.519531 17.15625 0.390625 13.6875 0.390625 C 11.226562 0.390625 9.109375 -0.0820312 7.328125 -1.03125 C 5.546875 -1.988281 4.1875 -3.316406 3.25 -5.015625 C 2.3125 -6.722656 1.84375 -8.679688 1.84375 -10.890625 C 1.84375 -13.085938 2.34375 -15.03125 3.34375 -16.71875 C 4.34375 -18.414062 5.734375 -19.726562 7.515625 -20.65625 C 9.296875 -21.582031 11.332031 -22.046875 13.625 -22.046875 C 15.238281 -22.046875 16.671875 -21.773438 17.921875 -21.234375 C 19.179688 -20.691406 20.222656 -19.921875 21.046875 -18.921875 L 21.046875 -21.65625 L 23.546875 -21.65625 L 23.546875 -14.96875 L 21.3125 -14.96875 C 20.613281 -16.5 19.609375 -17.679688 18.296875 -18.515625 C 16.992188 -19.347656 15.472656 -19.765625 13.734375 -19.765625 C 11.117188 -19.765625 9.046875 -18.984375 7.515625 -17.421875 C 5.992188 -15.859375 5.234375 -13.742188 5.234375 -11.078125 C 5.234375 -8.253906 6 -6.019531 7.53125 -4.375 C 9.070312 -2.738281 11.164062 -1.921875 13.8125 -1.921875 C 16.070312 -1.972656 17.90625 -2.5625 19.3125 -3.6875 C 20.71875 -4.820312 21.445312 -6.515625 21.5 -8.765625 L 16.921875 -8.765625 L 16.921875 -10.921875 Z M 24.578125 -10.921875 "/></g></g></g><g fill="#000000" fill-opacity="1"><g transform="translate(155.367488, 43.994155)"><g/></g></g><g fill="#000000" fill-opacity="1"><g transform="translate(166.944034, 43.994155)"><g><path d="M 1.5 0 L 1.5 -2.03125 L 4.5 -2.03125 L 4.5 -19.625 L 1.5 -19.625 L 1.5 -21.65625 L 10.65625 -21.65625 L 10.65625 -19.625 L 7.65625 -19.625 L 7.65625 -12.234375 L 19.203125 -12.234375 L 19.203125 -19.625 L 16.15625 -19.625 L 16.15625 -21.65625 L 25.3125 -21.65625 L 25.3125 -19.625 L 22.3125 -19.625 L 22.3125 -2.03125 L 25.3125 -2.03125 L 25.3125 0 L 16.15625 0 L 16.15625 -2.03125 L 19.203125 -2.03125 L 19.203125 -10.046875 L 7.65625 -10.046875 L 7.65625 -2.03125 L 10.65625 -2.03125 L 10.65625 0 Z M 1.5 0 "/></g></g></g><g fill="#000000" fill-opacity="1"><g transform="translate(193.597029, 43.994155)"><g><path d="M 13.625 0.421875 C 11.3125 0.421875 9.265625 -0.0820312 7.484375 -1.09375 C 5.703125 -2.101562 4.320312 -3.460938 3.34375 -5.171875 C 2.375 -6.878906 1.890625 -8.742188 1.890625 -10.765625 C 1.890625 -12.796875 2.375 -14.675781 3.34375 -16.40625 C 4.320312 -18.132812 5.703125 -19.503906 7.484375 -20.515625 C 9.265625 -21.535156 11.3125 -22.046875 13.625 -22.046875 C 15.925781 -22.046875 17.96875 -21.535156 19.75 -20.515625 C 21.53125 -19.503906 22.90625 -18.132812 23.875 -16.40625 C 24.851562 -14.675781 25.34375 -12.796875 25.34375 -10.765625 C 25.34375 -8.742188 24.851562 -6.878906 23.875 -5.171875 C 22.90625 -3.460938 21.53125 -2.101562 19.75 -1.09375 C 17.96875 -0.0820312 15.925781 0.421875 13.625 0.421875 Z M 13.625 -1.890625 C 15.34375 -1.890625 16.828125 -2.285156 18.078125 -3.078125 C 19.335938 -3.867188 20.304688 -4.9375 20.984375 -6.28125 C 21.660156 -7.632812 22 -9.128906 22 -10.765625 C 22 -12.429688 21.660156 -13.941406 20.984375 -15.296875 C 20.304688 -16.660156 19.335938 -17.742188 18.078125 -18.546875 C 16.828125 -19.359375 15.34375 -19.765625 13.625 -19.765625 C 11.90625 -19.765625 10.414062 -19.359375 9.15625 -18.546875 C 7.894531 -17.742188 6.929688 -16.65625 6.265625 -15.28125 C 5.597656 -13.914062 5.265625 -12.398438 5.265625 -10.734375 C 5.265625 -9.066406 5.597656 -7.566406 6.265625 -6.234375 C 6.929688 -4.898438 7.894531 -3.84375 9.15625 -3.0625 C 10.414062 -2.28125 11.90625 -1.890625 13.625 -1.890625 Z M 13.625 -1.890625 "/></g></g></g><g fill="#000000" fill-opacity="1"><g transform="translate(220.71155, 43.994155)"><g><path d="M 6.234375 0 L 6.234375 -2.03125 L 9.234375 -2.03125 L 9.234375 -19.625 L 3.3125 -19.625 L 3.3125 -14.125 L 0.96875 -14.125 L 0.96875 -21.65625 L 20.5 -21.65625 L 20.5 -14.125 L 18.15625 -14.125 L 18.15625 -19.625 L 12.34375 -19.625 L 12.34375 -2.03125 L 15.34375 -2.03125 L 15.34375 0 Z M 6.234375 0 "/></g></g></g><g fill="#000000" fill-opacity="1"><g transform="translate(242.057023, 43.994155)"><g><path d="M 1.5 0 L 1.5 -2.03125 L 4.5 -2.03125 L 4.5 -19.625 L 1.5 -19.625 L 1.5 -21.65625 L 20.34375 -21.65625 L 20.34375 -15.234375 L 17.921875 -15.234375 L 17.921875 -19.625 L 7.65625 -19.625 L 7.65625 -12.265625 L 14.390625 -12.265625 L 14.390625 -14.8125 L 15.96875 -14.8125 L 15.96875 -7.578125 L 14.390625 -7.578125 L 14.390625 -10.15625 L 7.65625 -10.15625 L 7.65625 -2.03125 L 18.125 -2.03125 L 18.125 -6.546875 L 20.546875 -6.546875 L 20.546875 0 Z M 1.5 0 "/></g></g></g><g fill="#000000" fill-opacity="1"><g transform="translate(264.287065, 43.994155)"><g><path d="M 1.5 0 L 1.5 -2.03125 L 4.5 -2.03125 L 4.5 -19.625 L 1.5 -19.625 L 1.5 -21.65625 L 10.65625 -21.65625 L 10.65625 -19.625 L 7.65625 -19.625 L 7.65625 -2.03125 L 16.65625 -2.03125 L 16.65625 -8.6875 L 19.203125 -8.6875 L 19.203125 0 Z M 1.5 0 "/></g></g></g></svg>